<svg xmlns="http://www.w3.org/2000/svg" width="738" height="358.2" viewBox="0 0 256 124.25">
  <style>
    path { fill: #3e2a24; transition: fill 0.3s ease; }
    @media (prefers-color-scheme: dark) {
      path { fill: #ffffff; }
    }
  </style>
  <g fill-rule="evenodd" stroke="none" stroke-miterlimit="10" font-family="none" font-weight="none" font-size="none" text-anchor="none" style="mix-blend-mode:normal">
    <path d="M123.553 3.857q31.844-1.249 55.154 20.119 3.85-3.365 7.805-6.591-.486 3.538-2.949 6.244l.347.347q1.145-.763 2.428-.867-1.838 2.636-4.509 4.336.416.832 1.387.693a3.1 3.1 0 0 0 .174 1.388q15.47 19.009 15.263 43.707a152 152 0 0 0 9.539 6.764 74 74 0 0 1 5.897 7.284 123 123 0 0 0 10.753 5.377q-4.267 2.185-8.325-.52-2.81-1.77-5.03-4.336-5.862-10.164-17.517-9.193-.416.555.173 1.214 1.977 1.77 3.296 3.99-.209.485-.694.693a4.34 4.34 0 0 1-2.428 0 36 36 0 0 1-4.683-3.642 185 185 0 0 1-5.203-9.366q-1.77-2.81-4.336-5.03a202 202 0 0 1-12.835-6.937q-3.295-4.024-7.805-6.417-3.087 1.18-4.51 4.162a15.8 15.8 0 0 1-2.948 2.602 158 158 0 0 1-11.1 4.856q-2.29 1.422-3.469 3.816a553 553 0 0 0 16.304 16.65q-1.873-.104-3.816-.347a217 217 0 0 1-14.569-14.569q-2.706-2.116-5.897-1.04a262 262 0 0 0-17.69 14.222 5 5 0 0 1-1.215.52 14.7 14.7 0 0 0-3.295-.867q-.52-.555-.174-1.214a524 524 0 0 1 17.865-14.049 31 31 0 0 1 5.55-3.122 32.5 32.5 0 0 0 6.937-2.081 121 121 0 0 0-12.487-14.222q-2.255-1.145-4.51-2.255-2.393-6.452-7.631-1.908a72.5 72.5 0 0 1-12.141 8.672 48.6 48.6 0 0 0-4.336 5.377 120 120 0 0 1-7.111 13.181q-.694.694-1.388 0 1.145-2.254 2.255-4.51 1.18-5.965-4.336-2.948-.728 1.353-1.56 2.602-3.123 2.428-5.55 5.55A525 525 0 0 1 66.49 91.617q-2.462 2.116-5.723 2.429.312-1.63 1.734-2.602 7.84-4.405 8.325-13.528-.416-2.394-2.428-3.816-4.162-2.428-8.845-3.642-4.093 1.318-7.111 4.336-6.244 5.55-10.927 12.314a63.5 63.5 0 0 1-9.192 6.417q-.59.208-.694-.52a7.5 7.5 0 0 1 .867-2.081q8.36-6.105 14.222-14.57 4.857-5.133 10.927-8.671Q63.16 20.646 108.29 6.458q7.632-1.803 15.263-2.601m40.238 29.485a97 97 0 0 0 11.447-6.591 59.5 59.5 0 0 0-9.366-7.458Q130.11-1.52 93.375 17.558 64.86 34.452 59.727 67.336q2.29-.104 4.51.52 4.89 1.873 9.886 3.295 3.85-1.248 5.203-5.203a53 53 0 0 1 8.845-6.07 345 345 0 0 1 25.67-19.079q3.399-2.324 7.284-1.04a93 93 0 0 0 7.631 5.897q1.561 1.873 1.908 4.336a84 84 0 0 0 11.62 10.58q2.394.52 4.51-.694 5.134-4.059 10.06-8.325 4.544-1.943 8.672.693l5.55 4.857q9.088 3.78 16.303 10.406 5.342.763 9.366 4.336-1.214-22.408-15.783-39.544-2.567 2.22-5.724 3.642a232 232 0 0 0-12.487 4.163q-2.325 2.844-5.55 4.51-4.614.901-9.193 1.907-.243-1.353.867-2.255 2.498-2.046 5.204-3.815-1.735-1.076-3.816-1.388a224 224 0 0 0-9.713-1.734q-9.019-2.533-13.181-10.927 1.353-.416 2.775-.52-4.267-2.324-5.724-6.765 2.983 1.804 6.07 2.949-5.584-4.683-6.07-11.967 14.361 17.1 35.902 23.414.347 1.492.868 2.948 1.838.729.867 2.429 3.226-2.914 7.284-4.51-1.387-1.422-3.122-.694-1.248.174-2.428-.346"></path>
    <path d="M218.945 97.861a23.1 23.1 0 0 0 7.978 0q.694 1.388 0 2.775a23.1 23.1 0 0 0-7.978 0q-.624-1.387 0-2.775"></path>
    <path d="M3.533 102.718q2.74-.174 5.376.346a300 300 0 0 0 6.244 12.141 699 699 0 0 0 6.764-12.314q2.602-.243 5.203-.173v1.734h-1.04a86.5 86.5 0 0 0-.174 13.181q.209.937 1.041 1.388.243.659.173 1.387h-6.59q-.174-1.318.867-2.08a89 89 0 0 0 0-11.101 236 236 0 0 0-5.55 10.753q-.729 1.457-1.908 2.428-1.006-.624-1.56-1.734a236 236 0 0 0-5.551-10.753 73 73 0 0 0 0 10.06q1.422.832 1.214 2.427h-4.51q-.207-1.595 1.215-2.428a125 125 0 0 0 0-13.181q-.52-.451-1.214-.347zm33.994 0q.763-.14 1.387.346a109 109 0 0 0 3.816 7.285q1.353.52 2.775.347v1.734a4.9 4.9 0 0 0-1.734.174 133 133 0 0 0 2.948 5.376q.66.729 1.561 1.04.486.625.347 1.388h-6.59q.173-1.248.173-2.428a51 51 0 0 0-2.949-4.856q-4.44 1.318-7.458 4.856 0 1.18.174 2.428h-4.51q-.138-.763.347-1.387 1.353-.555 2.255-1.735a393 393 0 0 0 7.458-14.568m-3.816 10.926a68 68 0 0 1 5.203-2.081 60 60 0 0 0-2.08-3.642 124 124 0 0 0-3.123 5.723m22.547-10.926q3.92-.035 7.285 1.907 2.255 1.804 2.081 4.683h-5.55q-.173-1.526 1.04-2.428-.901-2.532-3.642-2.428-4.856.486-6.243 5.203-1.11 5.897 3.989 8.846 7.527 1.422 6.244-6.07h-4.857v-1.735q4.648-.174 9.193.347.242 4.683.173 9.365-2.602.243-5.03-.693-8.568 2.393-13.528-4.857-2.15-6.868 3.99-10.58 2.358-1.283 4.855-1.56m10.06 0h6.59q.174 1.318-.867 2.08-.346 6.765 0 13.53 1.076.762.868 2.08h-6.591q-.208-1.11.694-1.734a96 96 0 0 0 .173-13.875q-1.04-.763-.867-2.081"></path>
    <path d="M82.621 102.718q4.683-.209 8.672 2.254.486 2.116.347 4.336h-1.734q-1.665-5.376-7.285-4.683-4.579 1.908-4.856 6.938 1.04 8.845 9.366 6.244 2.22-1.422 2.775-3.99h1.734q1.075 4.44-3.122 5.724-8.082 2.706-13.702-3.642-3.538-7.285 3.296-11.62 2.255-.972 4.51-1.561"></path>
    <path d="M101.353 102.718q8.325-.555 11.62 6.937.798 8.082-7.11 10.233-6.938 1.7-11.968-3.295-4.718-8.742 4.336-13.008 1.63-.451 3.122-.867m-5.203 7.457q.416 7.528 7.804 8.499 6.938-2.081 4.51-9.019-2.394-5.238-8.152-5.203-3.954 1.457-4.162 5.723m27.75-7.457h16.997v4.162h-1.734q.034-1.596-1.388-2.255-4.162-.416-8.325.174-.59 3.26-.173 6.59 3.573-2.81 8.151-2.428.14.763-.347 1.388-4.162-.104-7.11 2.775-1.562 2.844-.174 5.723 3.642.347 7.284 0 2.082-.45 2.082-2.601h1.734v4.162h-17.344q.07-1.491 1.214-2.428a119 119 0 0 0 0-12.834 2.27 2.27 0 0 0-1.04-1.041q-.313-.728.173-1.387m17.344 0q2.81-.174 5.55.346 5.203 6.001 10.233 12.141.347-5.03 0-10.06-.694-.728-1.214-1.56.07-.417.347-.694 2.081-.243 4.162-.173.174 1.63-1.214 2.428a119 119 0 0 0 0 12.834q1.423.833 1.214 2.428a33 33 0 0 1-4.509-.173q-5.411-6.556-10.927-13.008a89 89 0 0 0 0 11.1q1.076.763.867 2.081h-4.162a3.1 3.1 0 0 1 .173-1.387q.729-.555 1.041-1.388.347-6.243 0-12.487-.52-.763-1.388-1.041a3.1 3.1 0 0 1-.173-1.387"></path>
    <path d="M166.913 102.718a22.8 22.8 0 0 1 6.59 1.04v-1.04h1.735v4.509h-1.734q.104-.971-.694-1.561-3.295-1.943-6.938-.694-2.289 2.359.694 3.816a42 42 0 0 1 7.805 3.989q2.636 6.417-4.336 7.458-3.677.486-7.111-.867-.624 1.144-1.908 1.04v-4.162q1.596-.312 2.081 1.214 2.36 1.318 5.03 1.56 1.873-.311 3.122-1.734.382-1.7-1.214-2.601l-6.938-3.122q-3.954-3.018-1.04-6.938 2.255-1.526 4.856-1.907m9.019 0h6.59q.174 1.318-.866 2.08a73 73 0 0 0 0 10.06q.763 4.059 4.856 3.816 4.544.104 4.856-4.51a58.6 58.6 0 0 0 0-9.018q-1.422-.833-1.214-2.428h4.51q.208 1.595-1.215 2.428l-.346 8.325q-.451 6.972-7.458 6.937-7.493.382-8.499-6.937l-.347-8.672q-1.04-.763-.867-2.081m19.078 0h17.344v4.162q-.936.139-1.734-.347-.278-1.11-1.04-1.908-4.337-.416-8.673.174-.59 3.26-.173 6.59 3.573-2.81 8.152-2.428.138.763-.347 1.388-4.163-.104-7.111 2.775-1.214 2.463-.694 5.203 4.37.59 8.845.174 1.006-.902 1.041-2.255h1.734v4.162H195.01q.07-1.491 1.214-2.428.417-6.764-.173-13.528h-1.04zm17.691 0q2.81-.174 5.55.346 5.134 6.07 10.233 12.141.347-5.03 0-10.06-1.422-.832-1.214-2.427h4.51q.208 1.595-1.214 2.428a119 119 0 0 0 0 12.834q1.422.833 1.214 2.428-2.29.174-4.51-.346-5.654-6.765-11.273-13.529a89 89 0 0 0 0 11.1q.312.833 1.04 1.388.243.659.174 1.387h-4.163a3.1 3.1 0 0 1 .174-1.387q.728-.555 1.04-1.388.347-6.243 0-12.487-.52-.763-1.387-1.041a3.1 3.1 0 0 1-.174-1.387"></path>
    <path d="M240.799 102.718q8.325-.555 11.62 6.937.798 8.082-7.111 10.233-6.938 1.7-11.967-3.295-4.718-8.742 4.336-13.008 1.63-.451 3.122-.867m-2.775 2.601q-5.238 6.626 1.387 12.14 5.828 3.4 8.845-2.6 1.006-9.61-8.498-10.407a12 12 0 0 1-1.734.867"></path>
  </g>
</svg>